<?xml version="1.0" standalone="no"?>
<!DOCTYPE svg PUBLIC "-//W3C//DTD SVG 20010904//EN"
 "http://www.w3.org/TR/2001/REC-SVG-20010904/DTD/svg10.dtd">
<svg version="1.0" xmlns="http://www.w3.org/2000/svg"
 width="150.000000pt" height="152.000000pt" viewBox="0 0 150.000000 152.000000"
 preserveAspectRatio="xMidYMid meet">

<g transform="translate(0.000000,152.000000) scale(0.100000,-0.100000)"
fill="#000000" stroke="none">
<path d="M1007 1503 c-90 -31 -166 -120 -191 -224 -5 -25 -3 -27 41 -33 25 -3
76 -6 112 -6 114 0 126 -14 17 -20 l-100 -5 -32 -93 c-74 -215 -132 -274 -537
-557 -340 -237 -337 -234 -267 -270 49 -25 75 -18 175 50 l95 64 48 -29 c86
-53 165 -73 282 -73 83 0 119 5 170 22 179 62 310 199 364 381 12 39 17 92 17
178 -1 147 4 156 97 167 l61 7 -20 31 c-12 21 -19 50 -19 85 l0 52 93 0 92 1
-27 23 c-18 17 -28 36 -30 62 -3 44 -30 58 -52 29 -11 -16 -15 -13 -39 28 -70
119 -221 175 -350 130z m-2 -744 c-77 -151 -258 -261 -425 -258 l-55 1 80 13
c184 29 311 113 396 262 33 58 36 46 4 -18z"/>
<path d="M405 200 c-3 -5 1 -10 9 -10 9 0 16 5 16 10 0 6 -4 10 -9 10 -6 0
-13 -4 -16 -10z"/>
<path d="M470 178 c0 -9 -6 -19 -12 -21 -10 -4 -10 -8 -1 -14 6 -4 13 -26 15
-48 2 -33 7 -41 26 -43 12 -2 22 1 22 7 0 6 -7 11 -15 11 -10 0 -15 11 -15 35
0 24 5 35 15 35 8 0 15 5 15 10 0 6 -5 10 -11 10 -7 0 -18 8 -25 18 -12 15
-13 15 -14 0z"/>
<path d="M771 178 c0 -10 -8 -18 -16 -18 -8 0 -15 -4 -15 -10 0 -5 7 -10 15
-10 11 0 15 -11 15 -40 0 -41 17 -59 41 -44 9 5 6 10 -9 15 -26 10 -32 69 -7
69 8 0 15 5 15 10 0 6 -6 10 -14 10 -8 0 -17 8 -19 18 -4 16 -5 16 -6 0z"/>
<path d="M270 78 c0 -50 4 -77 10 -73 6 3 10 17 10 31 0 21 3 24 25 18 31 -8
65 19 65 51 0 33 -30 55 -73 53 l-37 -1 0 -79z m85 51 c4 -5 4 -21 1 -35 -5
-20 -12 -25 -34 -22 -27 3 -39 25 -28 54 6 16 52 19 61 3z"/>
<path d="M410 105 c0 -35 4 -54 10 -50 6 3 10 26 10 50 0 24 -4 47 -10 50 -6
4 -10 -15 -10 -50z"/>
<path d="M544 135 c-14 -21 -15 -31 -6 -51 14 -30 33 -38 67 -30 36 9 31 27
-6 19 -21 -4 -34 -1 -40 8 -7 11 1 15 36 19 44 5 44 5 32 30 -18 36 -61 39
-83 5z m66 -5 c0 -5 -14 -10 -31 -10 -17 0 -28 4 -24 10 3 6 17 10 31 10 13 0
24 -4 24 -10z"/>
<path d="M667 154 c-16 -16 -6 -45 18 -54 33 -13 33 -34 0 -28 -31 6 -43 -8
-15 -17 57 -18 82 33 30 60 -36 18 -39 28 -7 23 12 -1 23 2 25 7 3 12 -41 19
-51 9z"/>
<path d="M894 135 c-32 -49 23 -104 75 -75 28 15 29 75 2 90 -32 17 -60 11
-77 -15z m75 -14 c13 -24 -8 -55 -34 -50 -28 6 -42 34 -26 53 18 22 48 20 60
-3z"/>
<path d="M1020 103 c0 -29 5 -53 10 -53 6 0 10 18 10 41 0 32 4 42 20 46 30 8
24 22 -10 21 -29 -1 -30 -2 -30 -55z"/>
<path d="M1106 144 c-38 -37 4 -105 54 -89 18 6 21 3 18 -12 -3 -14 -12 -18
-41 -17 -46 2 -45 -20 0 -24 47 -5 63 19 63 92 l0 63 -39 1 c-25 1 -46 -4 -55
-14z m69 -39 c0 -25 -4 -30 -24 -30 -28 0 -47 25 -38 49 5 12 16 16 34 14 24
-3 28 -8 28 -33z"/>
<path d="M840 65 c0 -9 5 -15 11 -13 6 2 11 8 11 13 0 5 -5 11 -11 13 -6 2
-11 -4 -11 -13z"/>
</g>
</svg>
