<?xml version="1.0" encoding="utf-8"?>
<!-- Svg Vector Icons : http://www.onlinewebfonts.com/icon -->
<!DOCTYPE svg PUBLIC "-//W3C//DTD SVG 1.1//EN" "http://www.w3.org/Graphics/SVG/1.1/DTD/svg11.dtd">
<svg version="1.1" xmlns="http://www.w3.org/2000/svg" x="0px" y="0px" viewBox="0 0 1000 1000"
     enable-background="new 0 0 1000 1000" xml:space="preserve">
<metadata> Svg Vector Icons : http://www.onlinewebfonts.com/icon </metadata>
<g><g><path d="M879,360.5h-23.5V247c0-0.7-0.1-1.4-0.2-2.1c0-4.5-1.5-8.9-4.6-12.4L661.8,16.6c-0.1-0.1-0.1-0.1-0.2-0.1c-1.1-1.3-2.4-2.3-3.8-3.2c-0.4-0.3-0.8-0.5-1.3-0.8c-1.2-0.7-2.5-1.2-3.8-1.6c-0.4-0.1-0.7-0.2-1-0.3c-1.4-0.3-2.9-0.5-4.4-0.5H182.9c-21.2,0-38.4,17.2-38.4,38.4v312.1H121c-30.3,0-54.9,24.6-54.9,54.9v285.6c0,30.3,24.6,54.9,54.9,54.9h23.5v195.5c0,21.2,17.2,38.4,38.4,38.4h634.1c21.2,0,38.4-17.2,38.4-38.4V756H879c30.3,0,54.9-24.6,54.9-54.9V415.5C933.9,385.1,909.3,360.5,879,360.5z M182.9,48.4h445.1v196.6c0,10.6,8.6,19.2,19.2,19.2h169.8v96.3H182.9V48.4z M667.5,676.4h-57l-3.8-98.8c-1.1-31-2.3-68.5-2.3-106.1h-1.1c-8,32.9-18.8,69.7-28.7,99.9l-31.4,100.7h-45.6l-27.6-99.9c-8.4-30.2-17.2-67-23.3-100.7h-0.8c-1.5,34.8-2.7,74.7-4.6,106.8l-4.6,98h-54l16.5-258h77.7l25.3,86.2c8,29.8,16.1,62,21.8,92.2h1.2c7.3-29.8,16.1-63.9,24.5-92.6l27.6-85.8h76.2L667.5,676.4z M134.5,676.4l74.6-130.6l-72-127.5h67l22.6,47.1c7.7,15.7,13.4,28.3,19.6,42.9h0.8c6.1-16.4,11.1-27.9,17.6-42.9l21.8-47.1h66.6l-72.8,126L357,676.4h-67.4l-23.4-46.7c-9.6-18-15.7-31.4-23-46.3h-0.8c-5.4,14.9-11.9,28.3-19.9,46.3l-21.4,46.7H134.5z M817.1,941.2H182.9V756h634.1L817.1,941.2L817.1,941.2z M873.5,676.4H712.3v-258h58.6v209.1h102.6L873.5,676.4L873.5,676.4z"/></g><g></g><g></g><g></g><g></g><g></g><g></g><g></g><g></g><g></g><g></g><g></g><g></g><g></g><g></g><g></g></g>
</svg>