<?xml version="1.0" encoding="utf-8"?>
<!-- Svg Vector Icons : http://www.onlinewebfonts.com/icon -->
<!DOCTYPE svg PUBLIC "-//W3C//DTD SVG 1.1//EN" "http://www.w3.org/Graphics/SVG/1.1/DTD/svg11.dtd">
<svg version="1.1" xmlns="http://www.w3.org/2000/svg" x="0px" y="0px" viewBox="0 0 1000 1000"
     enable-background="new 0 0 1000 1000" xml:space="preserve">
<metadata> Svg Vector Icons : http://www.onlinewebfonts.com/icon </metadata>
<g><g transform="translate(0.000000,511.000000) scale(0.100000,-0.100000)"><path d="M272.7,4913.9c-38.8-28.1-92.8-77.7-116.6-110.1l-45.3-60.4l-6.5-4602.1L100-4460.8l47.5-97.1c28.1-51.8,77.7-114.4,110.1-138.2l60.4-45.3h3635.1h3635.1l58.3,45.3c144.6,105.8,148.9,123,155.4,582.8l6.5,418.8h-334.6H7137v-194.3v-194.3H3953.1H769.2V104.6v4187.7h755.5c416.6,0,755.5-4.3,755.5-8.6c0-4.3-32.4-62.6-73.4-129.5c-187.8-310.8-323.8-777.1-326-1103c0-200.7,4.3-226.7,71.2-360.5c280.6-569.9,1085.8-548.3,1357.8,36.7c51.8,110.1,60.4,155.4,58.3,313c-2.2,306.5-140.3,768.5-319.5,1085.8l-95,166.2h1454.9h1454.9v-572v-574.2l54-51.8l51.8-54h585H7137v-874.2v-874.2h334.6h334.6v1003.7c0,794.4-6.5,1018.9-28.1,1075c-30.2,69.1-1482.9,1511-1575.8,1562.8c-36.7,21.6-714.5,25.9-2953,28.1H343.9L272.7,4913.9z M2798.2,3364.1c97.1-49.6,159.7-129.5,192.1-248.2c60.4-226.7-95-440.4-334.6-459.8c-144.6-13-222.3,19.4-319.5,127.4c-125.2,136-131.7,328.1-17.3,470.6C2439.9,3405.1,2632,3448.3,2798.2,3364.1z"/><path d="M2498.2,1922.1c-131.7-66.9-164.1-133.8-164.1-347.5c0-142.5,8.6-200.8,38.9-246.1c123-187.8,390.7-183.5,494.3,8.6c28.1,54,38.9,118.7,38.9,246.1c0,202.9-38.9,284.9-157.6,341.1C2651.5,1971.8,2591,1969.6,2498.2,1922.1z"/><path d="M2543.5,866.6C2455,849.3,2349.3,722,2332,609.7c-21.6-151.1,0-408,43.2-470.6c116.6-181.3,377.8-181.3,490,0c38.9,66.9,43.2,99.3,36.7,319.5c-6.5,239.6-8.6,250.4-69.1,313c-54,56.1-187.8,118.7-228.8,107.9C2597.5,877.4,2571.6,870.9,2543.5,866.6z"/><path d="M4004.9,579.5c-101.4-54-185.6-153.3-213.7-254.7c-30.2-110.1-30.2-2942.2,2.2-3054.4c28.1-101.4,136-228.8,228.8-265.5c58.3-25.9,556.9-30.2,2810.5-30.2c1884.4,0,2758.7,6.5,2801.8,23.7c86.3,32.4,177,123,224.5,224.5c36.7,82,41,172.7,41,1575.8V290.2l-47.5,95c-28.1,51.8-86.3,125.2-131.7,159.7l-84.2,66.9l-2775.9,4.3C4156,620.5,4080.4,620.5,4004.9,579.5z M7026.9-122c34.5-17.3,66.9-47.5,75.6-64.8c6.5-19.4,12.9-479.2,12.9-1021c0-980,0-984.3-47.5-1034c-64.8-69.1-220.2-69.1-291.4-2.1l-49.6,45.3v990.8c0,660.5,8.6,1005.9,23.7,1033.9C6793.8-91.8,6923.3-68.1,7026.9-122z M6271.4-189c25.9-32.4,45.3-79.9,45.3-105.8c0-25.9-222.3-401.5-496.5-833.2l-496.5-785.7l462-10.8c414.4-8.7,466.2-15.1,507.3-51.8c30.2-28.1,45.3-66.9,45.3-118.7c0-170.5-17.3-174.8-772.8-174.8c-621.7,0-647.6,2.1-703.7,45.3c-110.1,86.3-97.1,116.6,440.4,967.1c274.1,429.6,496.5,787.9,496.5,792.2c0,4.3-194.3,8.6-431.7,8.6c-403.7,0-433.9,2.1-474.9,43.2c-25.9,25.9-43.2,71.2-43.2,118.7c0,47.5,17.3,92.8,43.2,118.7c41,41,71.2,43.2,688.6,43.2h647.6L6271.4-189z M8671.8-201.9c248.2-114.4,367-297.9,382.1-591.4c13-235.3-32.4-371.3-168.4-505.1c-146.8-149-291.4-198.6-619.5-211.5l-265.5-8.7v-338.9c0-325.9-2.1-341.1-47.5-384.2c-28.1-23.7-73.4-49.6-101.5-56.1c-66.9-17.3-185.6,32.4-215.9,88.5c-15.1,30.2-23.7,360.5-23.7,1010.2v967.1l49.6,51.8l47.5,51.8l420.9-8.6C8527.1-145.8,8557.4-147.9,8671.8-201.9z"/><path d="M8000.4-823.6v-371.3l211.5,8.7c239.6,8.6,326,45.3,410.1,170.5c45.3,62.6,49.6,92.8,41,207.2c-10.8,155.4-71.2,254.7-179.2,300c-36.7,15.1-161.9,34.6-276.3,43.2l-207.2,15.1V-823.6z"/><path d="M2528.4-337.9c-47.5-17.3-103.6-51.8-123-75.5c-75.6-92.8-103.6-300.1-60.4-455.5c69.1-248.2,412.3-287.1,528.9-60.5c28.1,51.8,34.5,112.2,28.1,259c-6.5,166.2-12.9,196.4-60.4,246.1C2744.3-320.6,2651.5-294.7,2528.4-337.9z"/></g></g>
</svg>