<?xml version="1.0" encoding="UTF-8"?>
<!DOCTYPE svg PUBLIC "-//W3C//DTD SVG 1.1//EN" "http://www.w3.org/Graphics/SVG/1.1/DTD/svg11.dtd">
<svg xmlns="http://www.w3.org/2000/svg" version="1.1" width="200px" height="200px" style="shape-rendering:geometricPrecision; text-rendering:geometricPrecision; image-rendering:optimizeQuality; fill-rule:evenodd; clip-rule:evenodd" xmlns:xlink="http://www.w3.org/1999/xlink">
<g><path style="opacity:0.949" fill="#6db33e" d="M 91.5,34.5 C 127.63,31.4692 152.796,46.4692 167,79.5C 193.241,93.5443 200.907,114.544 190,142.5C 183.27,153.946 173.437,161.113 160.5,164C 121.167,164.667 81.8333,164.667 42.5,164C 11.0682,153.818 -0.931762,132.485 6.5,100C 13.2408,82.2963 25.9075,71.6296 44.5,68C 55.9477,50.6907 71.6143,39.524 91.5,34.5 Z"/></g>
<g><path style="opacity:1" fill="#fefefd" d="M 94.5,44.5 C 126.084,43.0405 147.584,57.0405 159,86.5C 163.247,89.7084 167.747,92.5417 172.5,95C 185.955,108.444 188.121,123.611 179,140.5C 173.898,147.634 167.065,152.134 158.5,154C 120.5,154.667 82.5,154.667 44.5,154C 21.9408,146.739 12.1075,131.239 15,107.5C 20.3656,89.8008 32.1989,79.6341 50.5,77C 57.1563,68.0108 64.823,60.0108 73.5,53C 80.1874,49.0569 87.1874,46.2235 94.5,44.5 Z"/></g>
<g><path style="opacity:1" fill="#6eb440" d="M 128.5,71.5 C 133.327,81.4903 135.661,92.1569 135.5,103.5C 136.496,122.4 127.83,133.566 109.5,137C 98.5,137.667 87.5,137.667 76.5,137C 98.6178,132.874 114.451,120.707 124,100.5C 124.667,99.5 124.667,98.5 124,97.5C 118.932,107.235 111.766,115.068 102.5,121C 92.9098,125.53 82.9098,128.863 72.5,131C 69.7431,131.782 67.2431,131.282 65,129.5C 56.7955,113.451 60.9622,101.617 77.5,94C 87.9163,92.7692 98.2496,91.1025 108.5,89C 117.463,85.7008 124.13,79.8675 128.5,71.5 Z"/></g>
<g><path style="opacity:1" fill="#75b74a" d="M 63.5,133.5 C 68.2624,134.092 69.5957,136.592 67.5,141C 61.2016,141.495 59.8682,138.995 63.5,133.5 Z"/></g>
</svg>
