<?xml version="1.0" encoding="UTF-8"?>
<!DOCTYPE svg PUBLIC "-//W3C//DTD SVG 1.1//EN" "http://www.w3.org/Graphics/SVG/1.1/DTD/svg11.dtd">
<svg xmlns="http://www.w3.org/2000/svg" version="1.1" width="821px" height="544px"
     style="shape-rendering:geometricPrecision; text-rendering:geometricPrecision; image-rendering:optimizeQuality; fill-rule:evenodd; clip-rule:evenodd">
<g><path style="opacity:0.991" fill="#6db23f" d="M 820.5,357.5 C 820.5,366.167 820.5,374.833 820.5,383.5C 813.289,447.848 781.289,495.348 724.5,526C 704.673,535.286 684.007,541.119 662.5,543.5C 501.833,543.5 341.167,543.5 180.5,543.5C 102.72,534.033 47.5537,493.7 15,422.5C -8.02167,361.768 -3.68834,303.102 28,246.5C 70.9087,180.292 132.075,148.792 211.5,152C 228.581,153.283 245.248,156.616 261.5,162C 271.372,165.837 281.039,169.837 290.5,174C 260.66,151.597 226.994,138.931 189.5,136C 244.613,49.2514 323.946,4.08474 427.5,0.5C 504.722,2.10919 570.722,29.7759 625.5,83.5C 637.366,67.7797 647.2,50.7797 655,32.5C 675.167,88.8311 690.5,146.498 701,205.5C 771.237,232.328 811.071,282.994 820.5,357.5 Z M 628.5,209.5 C 629.412,208.262 629.579,206.928 629,205.5C 627.812,206.563 627.312,207.897 627.5,209.5C 608.058,256.799 578.391,296.632 538.5,329C 499.285,361.781 454.951,385.448 405.5,400C 365.364,411.326 324.864,421.159 284,429.5C 268.272,423.109 256.272,412.443 248,397.5C 226.305,348.762 230.638,302.429 261,258.5C 292.602,219.277 333.768,197.777 384.5,194C 405.148,192.387 425.814,191.054 446.5,190C 521.086,183.625 582.919,152.458 632,96.5C 639.668,86.5061 646.334,75.8394 652,64.5C 676.011,129.22 689.511,196.054 692.5,265C 691.23,393.936 626.23,460.602 497.5,465C 455.155,465.657 412.821,465.157 370.5,463.5C 353.765,463.72 337.099,464.553 320.5,466C 349.088,456.026 377.921,446.86 407,438.5C 486.715,413.439 549.048,365.772 594,295.5C 610.765,268.966 622.265,240.299 628.5,209.5 Z M 257.5,444.5 C 272.693,445.196 281.36,453.029 283.5,468C 280.8,485.374 270.8,492.707 253.5,490C 236.603,481.304 233.103,468.804 243,452.5C 247.119,448.361 251.952,445.694 257.5,444.5 Z"/></g>
<g><path style="opacity:0.324" fill="#6eb23f" d="M 628.5,209.5 C 628.167,209.5 627.833,209.5 627.5,209.5C 627.312,207.897 627.812,206.563 629,205.5C 629.579,206.928 629.412,208.262 628.5,209.5 Z"/></g>
</svg>
